{
  "accessors": [
    {
      "bufferView": 2,
      "componentType": 5126,
      "count": 2318,
      "max": [
        123.16278076171875,
        134.51898193359375,
        50.47544860839844
      ],
      "min": [
        -123.16278076171875,
        -2.3952560424804688,
        -51.74379348754883
      ],
      "type": "VEC3"
    },
    {
      "bufferView": 2,
      "byteOffset": 27816,
      "componentType": 5126,
      "count": 2318,
      "max": [
        1.0,
        1.0,
        1.0
      ],
      "min": [
        -1.0,
        -1.0,
        -1.0
      ],
      "type": "VEC3"
    },
    {
      "bufferView": 3,
      "componentType": 5126,
      "count": 2318,
      "max": [
        1.0,
        1.0,
        1.0,
        1.0
      ],
      "min": [
        -1.0,
        -1.0,
        -1.0,
        1.0
      ],
      "type": "VEC4"
    },
    {
      "bufferView": 1,
      "componentType": 5126,
      "count": 2318,
      "max": [
        0.9960904717445374,
        0.9949063062667847
      ],
      "min": [
        0.006875939201563597,
        0.005354458466172218
      ],
      "type": "VEC2"
    },
    {
      "bufferView": 0,
      "componentType": 5125,
      "count": 6282,
      "type": "SCALAR"
    },
    {
      "bufferView": 2,
      "byteOffset": 55632,
      "componentType": 5126,
      "count": 32,
      "max": [
        -46.11805725097656,
        97.13088989257813,
        -48.94411849975586
      ],
      "min": [
        -87.82896423339844,
        65.90989685058594,
        -50.90299606323242
      ],
      "type": "VEC3"
    },
    {
      "bufferView": 2,
      "byteOffset": 56016,
      "componentType": 5126,
      "count": 32,
      "max": [
        4.440892098500626e-16,
        0.0,
        1.0
      ],
      "min": [
        -4.440892098500626e-16,
        0.0,
        -1.0
      ],
      "type": "VEC3"
    },
    {
      "bufferView": 3,
      "byteOffset": 37088,
      "componentType": 5126,
      "count": 32,
      "max": [
        1.0,
        6.860862049506977e-05,
        4.440892098500626e-16,
        1.0
      ],
      "min": [
        -1.0,
        -4.29510218964424e-05,
        -4.440892098500626e-16,
        1.0
      ],
      "type": "VEC4"
    },
    {
      "bufferView": 1,
      "byteOffset": 18544,
      "componentType": 5126,
      "count": 32,
      "max": [
        0.9714090824127197,
        0.39022424817085266
      ],
      "min": [
        0.7982959747314453,
        0.3344469368457794
      ],
      "type": "VEC2"
    },
    {
      "bufferView": 0,
      "byteOffset": 25128,
      "componentType": 5125,
      "count": 84,
      "type": "SCALAR"
    }
  ],
  "asset": {
    "extras": {
      "author": "tboiston (https://sketchfab.com/tboiston)",
      "license": "CC-BY-4.0 (http://creativecommons.org/licenses/by/4.0/)",
      "source": "https://sketchfab.com/3d-models/power-generator-thing-0fd0fdbd068d45ff9fd076ba5bf36a9f",
      "title": "Power Generator thing"
    },
    "generator": "Sketchfab-12.65.0",
    "version": "2.0"
  },
  "bufferViews": [
    {
      "buffer": 0,
      "byteLength": 25464,
      "name": "floatBufferViews",
      "target": 34963
    },
    {
      "buffer": 0,
      "byteLength": 18800,
      "byteOffset": 25464,
      "byteStride": 8,
      "name": "floatBufferViews",
      "target": 34962
    },
    {
      "buffer": 0,
      "byteLength": 56400,
      "byteOffset": 44264,
      "byteStride": 12,
      "name": "floatBufferViews",
      "target": 34962
    },
    {
      "buffer": 0,
      "byteLength": 37600,
      "byteOffset": 100664,
      "byteStride": 16,
      "name": "floatBufferViews",
      "target": 34962
    }
  ],
  "buffers": [
    {
      "byteLength": 138264,
      "uri": "scene.bin"
    }
  ],
  "images": [
    {
      "uri": "textures/lambert1_baseColor.png"
    },
    {
      "uri": "textures/lambert1_metallicRoughness.png"
    },
    {
      "uri": "textures/lambert1_normal.png"
    }
  ],
  "materials": [
    {
      "alphaMode": "BLEND",
      "doubleSided": true,
      "name": "lambert1",
      "normalTexture": {
        "index": 2
      },
      "occlusionTexture": {
        "index": 1
      },
      "pbrMetallicRoughness": {
        "baseColorTexture": {
          "index": 0
        },
        "metallicRoughnessTexture": {
          "index": 1
        }
      }
    }
  ],
  "meshes": [
    {
      "name": "SM_GeneratorMain_lambert1_0",
      "primitives": [
        {
          "attributes": {
            "NORMAL": 1,
            "POSITION": 0,
            "TANGENT": 2,
            "TEXCOORD_0": 3
          },
          "indices": 4,
          "material": 0,
          "mode": 4
        }
      ]
    },
    {
      "name": "SM_GeneratorGlass_lambert1_0",
      "primitives": [
        {
          "attributes": {
            "NORMAL": 6,
            "POSITION": 5,
            "TANGENT": 7,
            "TEXCOORD_0": 8
          },
          "indices": 9,
          "material": 0,
          "mode": 4
        }
      ]
    }
  ],
  "nodes": [
    {
      "children": [
        1
      ],
      "matrix": [
        1.0,
        0.0,
        0.0,
        0.0,
        0.0,
        2.220446049250313e-16,
        -1.0,
        0.0,
        0.0,
        1.0,
        2.220446049250313e-16,
        0.0,
        0.0,
        0.0,
        0.0,
        1.0
      ],
      "name": "Sketchfab_model"
    },
    {
      "children": [
        2
      ],
      "matrix": [
        1.0,
        0.0,
        0.0,
        0.0,
        0.0,
        0.0,
        1.0,
        0.0,
        0.0,
        -1.0,
        0.0,
        0.0,
        0.0,
        0.0,
        0.0,
        1.0
      ],
      "name": "0087aeca17b742c8adca00ed8bed3817.fbx"
    },
    {
      "children": [
        3,
        5
      ],
      "name": "RootNode"
    },
    {
      "children": [
        4
      ],
      "name": "SM_GeneratorMain"
    },
    {
      "mesh": 0,
      "name": "SM_GeneratorMain_lambert1_0"
    },
    {
      "children": [
        6
      ],
      "name": "SM_GeneratorGlass"
    },
    {
      "mesh": 1,
      "name": "SM_GeneratorGlass_lambert1_0"
    }
  ],
  "samplers": [
    {
      "magFilter": 9729,
      "minFilter": 9987,
      "wrapS": 10497,
      "wrapT": 10497
    }
  ],
  "scene": 0,
  "scenes": [
    {
      "name": "Sketchfab_Scene",
      "nodes": [
        0
      ]
    }
  ],
  "textures": [
    {
      "sampler": 0,
      "source": 0
    },
    {
      "sampler": 0,
      "source": 1
    },
    {
      "sampler": 0,
      "source": 2
    }
  ]
}
