{
  "accessors": [
    {
      "bufferView": 2,
      "componentType": 5126,
      "count": 600,
      "max": [
        0.6524400115013123,
        -0.34786298871040344,
        0.8313230276107788
      ],
      "min": [
        -0.5724689960479736,
        -0.5503290295600891,
        -0.7614079713821411
      ],
      "type": "VEC3"
    },
    {
      "bufferView": 2,
      "byteOffset": 7200,
      "componentType": 5126,
      "count": 600,
      "max": [
        1.0,
        1.0,
        1.0
      ],
      "min": [
        -1.0,
        -1.0,
        -1.0
      ],
      "type": "VEC3"
    },
    {
      "bufferView": 3,
      "componentType": 5126,
      "count": 600,
      "max": [
        1.0,
        1.0,
        1.0,
        1.0
      ],
      "min": [
        0.0,
        -1.0,
        -1.0,
        1.0
      ],
      "type": "VEC4"
    },
    {
      "bufferView": 1,
      "componentType": 5126,
      "count": 600,
      "max": [
        0.9986379742622375,
        1.0
      ],
      "min": [
        0.0,
        0.0
      ],
      "type": "VEC2"
    },
    {
      "bufferView": 0,
      "componentType": 5125,
      "count": 900,
      "type": "SCALAR"
    },
    {
      "bufferView": 2,
      "byteOffset": 14400,
      "componentType": 5126,
      "count": 2236,
      "max": [
        0.817484974861145,
        0.5346660017967224,
        1.0
      ],
      "min": [
        -0.817484974861145,
        -0.5400429964065552,
        -1.0
      ],
      "type": "VEC3"
    },
    {
      "bufferView": 2,
      "byteOffset": 41232,
      "componentType": 5126,
      "count": 2236,
      "max": [
        0.999997615814209,
        1.0,
        0.9999417662620544
      ],
      "min": [
        -0.999997615814209,
        -1.0,
        -0.9996331334114075
      ],
      "type": "VEC3"
    },
    {
      "bufferView": 3,
      "byteOffset": 9600,
      "componentType": 5126,
      "count": 2236,
      "max": [
        1.0,
        1.0,
        0.9998829960823059,
        1.0
      ],
      "min": [
        -0.6886109709739685,
        -1.0,
        -0.9997730255126953,
        1.0
      ],
      "type": "VEC4"
    },
    {
      "bufferView": 1,
      "byteOffset": 4800,
      "componentType": 5126,
      "count": 2236,
      "max": [
        0.9976009726524353,
        1.0016000270843506
      ],
      "min": [
        0.0012718100333586335,
        0.002127900021150708
      ],
      "type": "VEC2"
    },
    {
      "bufferView": 0,
      "byteOffset": 3600,
      "componentType": 5125,
      "count": 12330,
      "type": "SCALAR"
    },
    {
      "bufferView": 2,
      "byteOffset": 68064,
      "componentType": 5126,
      "count": 1576,
      "max": [
        0.6626819968223572,
        0.5503290295600891,
        0.8310030102729797
      ],
      "min": [
        -0.5720099806785583,
        -0.4502440094947815,
        -0.7596060037612915
      ],
      "type": "VEC3"
    },
    {
      "bufferView": 2,
      "byteOffset": 86976,
      "componentType": 5126,
      "count": 1576,
      "max": [
        0.990036129951477,
        0.9977689981460571,
        0.9922469854354858
      ],
      "min": [
        -0.9880042672157288,
        -0.9995825886726379,
        -0.9887653589248657
      ],
      "type": "VEC3"
    },
    {
      "bufferView": 3,
      "byteOffset": 45376,
      "componentType": 5126,
      "count": 1576,
      "max": [
        0.9998040199279785,
        0.9999970197677612,
        0.995510995388031,
        1.0
      ],
      "min": [
        -0.986299991607666,
        -0.9999579787254333,
        -0.9967160224914551,
        1.0
      ],
      "type": "VEC4"
    },
    {
      "bufferView": 1,
      "byteOffset": 22688,
      "componentType": 5126,
      "count": 1576,
      "max": [
        0.992622971534729,
        0.9913420081138611
      ],
      "min": [
        0.005923999939113855,
        0.008806560188531876
      ],
      "type": "VEC2"
    },
    {
      "bufferView": 0,
      "byteOffset": 52920,
      "componentType": 5125,
      "count": 4416,
      "type": "SCALAR"
    }
  ],
  "asset": {
    "extras": {
      "author": "Noel (https://sketchfab.com/ionstudios)",
      "license": "CC-BY-4.0 (http://creativecommons.org/licenses/by/4.0/)",
      "source": "https://sketchfab.com/3d-models/old-and-dusty-multi-crate-storage-f0596d78d9d24107a4401fd6ef1843c4",
      "title": "Old and dusty multi-crate storage"
    },
    "generator": "Sketchfab-12.68.0",
    "version": "2.0"
  },
  "bufferViews": [
    {
      "buffer": 0,
      "byteLength": 70584,
      "name": "floatBufferViews",
      "target": 34963
    },
    {
      "buffer": 0,
      "byteLength": 35296,
      "byteOffset": 70584,
      "byteStride": 8,
      "name": "floatBufferViews",
      "target": 34962
    },
    {
      "buffer": 0,
      "byteLength": 105888,
      "byteOffset": 105880,
      "byteStride": 12,
      "name": "floatBufferViews",
      "target": 34962
    },
    {
      "buffer": 0,
      "byteLength": 70592,
      "byteOffset": 211768,
      "byteStride": 16,
      "name": "floatBufferViews",
      "target": 34962
    }
  ],
  "buffers": [
    {
      "byteLength": 282360,
      "uri": "scene.bin"
    }
  ],
  "images": [
    {
      "uri": "textures/Straps_baseColor.jpeg"
    },
    {
      "uri": "textures/Straps_metallicRoughness.png"
    },
    {
      "uri": "textures/Straps_normal.png"
    },
    {
      "uri": "textures/plainBoxes_baseColor.jpeg"
    },
    {
      "uri": "textures/plainBoxes_metallicRoughness.png"
    },
    {
      "uri": "textures/plainBoxes_normal.png"
    },
    {
      "uri": "textures/palette_baseColor.jpeg"
    },
    {
      "uri": "textures/palette_metallicRoughness.png"
    },
    {
      "uri": "textures/palette_normal.jpeg"
    }
  ],
  "materials": [
    {
      "doubleSided": true,
      "name": "Straps",
      "normalTexture": {
        "index": 2
      },
      "occlusionTexture": {
        "index": 1
      },
      "pbrMetallicRoughness": {
        "baseColorTexture": {
          "index": 0
        },
        "metallicRoughnessTexture": {
          "index": 1
        }
      }
    },
    {
      "doubleSided": true,
      "name": "plainBoxes",
      "normalTexture": {
        "index": 5
      },
      "occlusionTexture": {
        "index": 4
      },
      "pbrMetallicRoughness": {
        "baseColorTexture": {
          "index": 3
        },
        "metallicRoughnessTexture": {
          "index": 4
        }
      }
    },
    {
      "doubleSided": true,
      "name": "palette",
      "normalTexture": {
        "index": 8
      },
      "occlusionTexture": {
        "index": 7
      },
      "pbrMetallicRoughness": {
        "baseColorTexture": {
          "index": 6
        },
        "metallicRoughnessTexture": {
          "index": 7
        }
      }
    }
  ],
  "meshes": [
    {
      "name": "defaultMaterial",
      "primitives": [
        {
          "attributes": {
            "NORMAL": 1,
            "POSITION": 0,
            "TANGENT": 2,
            "TEXCOORD_0": 3
          },
          "indices": 4,
          "material": 2,
          "mode": 4
        }
      ]
    },
    {
      "name": "defaultMaterial",
      "primitives": [
        {
          "attributes": {
            "NORMAL": 6,
            "POSITION": 5,
            "TANGENT": 7,
            "TEXCOORD_0": 8
          },
          "indices": 9,
          "material": 1,
          "mode": 4
        }
      ]
    },
    {
      "name": "defaultMaterial",
      "primitives": [
        {
          "attributes": {
            "NORMAL": 11,
            "POSITION": 10,
            "TANGENT": 12,
            "TEXCOORD_0": 13
          },
          "indices": 14,
          "material": 0,
          "mode": 4
        }
      ]
    }
  ],
  "nodes": [
    {
      "children": [
        1
      ],
      "matrix": [
        1.1106038093566895,
        0.0,
        0.0,
        0.0,
        0.0,
        2.466035840768409e-16,
        -1.1106038093566895,
        0.0,
        0.0,
        1.1106038093566895,
        2.466035840768409e-16,
        0.0,
        0.0,
        0.0,
        0.0,
        1.0
      ],
      "name": "Sketchfab_model"
    },
    {
      "children": [
        2,
        4,
        6
      ],
      "matrix": [
        1.0,
        0.0,
        0.0,
        0.0,
        0.0,
        -4.371139006309477e-08,
        0.999999999999999,
        0.0,
        0.0,
        -0.999999999999999,
        -4.371139006309477e-08,
        0.0,
        0.0,
        0.0,
        0.0,
        1.0
      ],
      "name": "Collada visual scene group"
    },
    {
      "children": [
        3
      ],
      "name": "polySurface4"
    },
    {
      "mesh": 0,
      "name": "defaultMaterial"
    },
    {
      "children": [
        5
      ],
      "name": "polySurface36"
    },
    {
      "mesh": 1,
      "name": "defaultMaterial"
    },
    {
      "children": [
        7
      ],
      "name": "polySurface33"
    },
    {
      "mesh": 2,
      "name": "defaultMaterial"
    }
  ],
  "samplers": [
    {
      "magFilter": 9729,
      "minFilter": 9987,
      "wrapS": 10497,
      "wrapT": 10497
    }
  ],
  "scene": 0,
  "scenes": [
    {
      "name": "Sketchfab_Scene",
      "nodes": [
        0
      ]
    }
  ],
  "textures": [
    {
      "sampler": 0,
      "source": 0
    },
    {
      "sampler": 0,
      "source": 1
    },
    {
      "sampler": 0,
      "source": 2
    },
    {
      "sampler": 0,
      "source": 3
    },
    {
      "sampler": 0,
      "source": 4
    },
    {
      "sampler": 0,
      "source": 5
    },
    {
      "sampler": 0,
      "source": 6
    },
    {
      "sampler": 0,
      "source": 7
    },
    {
      "sampler": 0,
      "source": 8
    }
  ]
}
